<svg width="392pt" height="236pt"
 viewBox="0.00 0.00 392.00 236.00" xmlns="http://www.w3.org/2000/svg" xmlns:xlink="http://www.w3.org/1999/xlink">
<g id="graph1" class="graph" transform="scale(1 1) rotate(0) translate(4 232)">
<title>Promises</title>
<polygon fill="transparent" points="-4,5 -4,-232 389,-232 389,5 -4,5"/>
<!-- Promise -->
<g id="node1" class="node"><title>Promise</title>
<ellipse fill="none" stroke="black" cx="50" cy="-116" rx="50.2046" ry="50.2046"/>
<text text-anchor="middle" x="50" y="-112.4" font-family="Times Roman,serif" font-size="14.00">Promise</text>
</g>
<!-- Pending -->
<g id="node3" class="node"><title>Pending</title>
<ellipse fill="none" stroke="black" stroke-dasharray="5,2" cx="187" cy="-116" rx="50.9117" ry="50.9117"/>
<text text-anchor="middle" x="187" y="-112.4" font-family="Times Roman,serif" font-size="14.00">Pending</text>
</g>
<!-- Promise&#45;&gt;Pending -->
<g id="edge2" class="edge"><title>Promise&#45;&gt;Pending</title>
<path fill="none" stroke="black" d="M100.236,-116C108.488,-116 117.122,-116 125.609,-116"/>
<polygon fill="black" stroke="black" points="125.852,-119.5 135.852,-116 125.852,-112.5 125.852,-119.5"/>
</g>
<!-- fulfilled -->
<g id="node5" class="node"><title>fulfilled</title>
<ellipse fill="none" stroke="black" cx="329" cy="-178" rx="46.207" ry="46.669"/>
<ellipse fill="none" stroke="black" cx="329" cy="-178" rx="50.1674" ry="50.669"/>
<text text-anchor="middle" x="329" y="-174.4" font-family="Times Roman,serif" font-size="14.00">fulfilled</text>
</g>
<!-- Pending&#45;&gt;fulfilled -->
<g id="edge4" class="edge"><title>Pending&#45;&gt;fulfilled</title>
<path fill="none" stroke="black" stroke-dasharray="5,2" d="M233.89,-136.473C246.501,-141.979 260.264,-147.988 273.303,-153.682"/>
<polygon fill="black" stroke="black" points="272.079,-156.966 282.644,-157.76 274.88,-150.551 272.079,-156.966"/>
</g>
<!-- rejected -->
<g id="node7" class="node"><title>rejected</title>
<ellipse fill="none" stroke="black" cx="329" cy="-55" rx="50.9117" ry="50.9117"/>
<ellipse fill="none" stroke="black" cx="329" cy="-55" rx="54.9117" ry="54.9117"/>
<text text-anchor="middle" x="329" y="-51.4" font-family="Times Roman,serif" font-size="14.00">rejected</text>
</g>
<!-- Pending&#45;&gt;rejected -->
<g id="edge6" class="edge"><title>Pending&#45;&gt;rejected</title>
<path fill="none" stroke="black" stroke-dasharray="5,2" d="M233.89,-95.8573C245.109,-91.0379 257.239,-85.827 268.961,-80.7916"/>
<polygon fill="black" stroke="black" points="270.442,-83.9646 278.249,-76.8017 267.679,-77.5329 270.442,-83.9646"/>
</g>
</g>
</svg>